<mxfile host="Electron" modified="2023-05-24T06:20:01.719Z" agent="Mozilla/5.0 (Windows NT 10.0; Win64; x64) AppleWebKit/537.36 (KHTML, like Gecko) draw.io/21.2.8 Chrome/112.0.5615.165 Electron/24.2.0 Safari/537.36" etag="G5uD8BHHhcCivmA7tYqG" version="21.2.8" type="device">
  <diagram name="Page-1" id="i-YioCjFlm8NZLpOkcIJ">
    <mxGraphModel dx="1418" dy="828" grid="1" gridSize="10" guides="1" tooltips="1" connect="1" arrows="1" fold="1" page="1" pageScale="1" pageWidth="827" pageHeight="1169" math="0" shadow="0">
      <root>
        <mxCell id="0" />
        <mxCell id="1" parent="0" />
        <mxCell id="o52KqbpZfKcBIqm1EHPK-1" value="" style="shape=table;html=1;whiteSpace=wrap;startSize=0;container=1;collapsible=0;childLayout=tableLayout;" parent="1" vertex="1">
          <mxGeometry x="249" y="360" width="320" height="110" as="geometry" />
        </mxCell>
        <mxCell id="o52KqbpZfKcBIqm1EHPK-2" value="" style="shape=partialRectangle;html=1;whiteSpace=wrap;collapsible=0;dropTarget=0;pointerEvents=0;fillColor=none;top=0;left=0;bottom=0;right=0;points=[[0,0.5],[1,0.5]];portConstraint=eastwest;" parent="o52KqbpZfKcBIqm1EHPK-1" vertex="1">
          <mxGeometry width="320" height="28" as="geometry" />
        </mxCell>
        <mxCell id="o52KqbpZfKcBIqm1EHPK-3" value="Projet" style="shape=partialRectangle;html=1;whiteSpace=wrap;connectable=0;overflow=hidden;fillColor=none;top=0;left=0;bottom=0;right=0;" parent="o52KqbpZfKcBIqm1EHPK-2" vertex="1">
          <mxGeometry width="100" height="28" as="geometry">
            <mxRectangle width="100" height="28" as="alternateBounds" />
          </mxGeometry>
        </mxCell>
        <mxCell id="o52KqbpZfKcBIqm1EHPK-4" value="MCD pour projet web+bdd" style="shape=partialRectangle;html=1;whiteSpace=wrap;connectable=0;overflow=hidden;fillColor=none;top=0;left=0;bottom=0;right=0;" parent="o52KqbpZfKcBIqm1EHPK-2" vertex="1">
          <mxGeometry x="100" width="220" height="28" as="geometry">
            <mxRectangle width="220" height="28" as="alternateBounds" />
          </mxGeometry>
        </mxCell>
        <mxCell id="o52KqbpZfKcBIqm1EHPK-5" value="" style="shape=partialRectangle;html=1;whiteSpace=wrap;collapsible=0;dropTarget=0;pointerEvents=0;fillColor=none;top=0;left=0;bottom=0;right=0;points=[[0,0.5],[1,0.5]];portConstraint=eastwest;" parent="o52KqbpZfKcBIqm1EHPK-1" vertex="1">
          <mxGeometry y="28" width="320" height="27" as="geometry" />
        </mxCell>
        <mxCell id="o52KqbpZfKcBIqm1EHPK-6" value="Titre" style="shape=partialRectangle;html=1;whiteSpace=wrap;connectable=0;overflow=hidden;fillColor=none;top=0;left=0;bottom=0;right=0;" parent="o52KqbpZfKcBIqm1EHPK-5" vertex="1">
          <mxGeometry width="100" height="27" as="geometry">
            <mxRectangle width="100" height="27" as="alternateBounds" />
          </mxGeometry>
        </mxCell>
        <mxCell id="o52KqbpZfKcBIqm1EHPK-7" value="Blogue jeux" style="shape=partialRectangle;html=1;whiteSpace=wrap;connectable=0;overflow=hidden;fillColor=none;top=0;left=0;bottom=0;right=0;" parent="o52KqbpZfKcBIqm1EHPK-5" vertex="1">
          <mxGeometry x="100" width="220" height="27" as="geometry">
            <mxRectangle width="220" height="27" as="alternateBounds" />
          </mxGeometry>
        </mxCell>
        <mxCell id="o52KqbpZfKcBIqm1EHPK-8" value="" style="shape=partialRectangle;html=1;whiteSpace=wrap;collapsible=0;dropTarget=0;pointerEvents=0;fillColor=none;top=0;left=0;bottom=0;right=0;points=[[0,0.5],[1,0.5]];portConstraint=eastwest;" parent="o52KqbpZfKcBIqm1EHPK-1" vertex="1">
          <mxGeometry y="55" width="320" height="28" as="geometry" />
        </mxCell>
        <mxCell id="o52KqbpZfKcBIqm1EHPK-9" value="Auteur" style="shape=partialRectangle;html=1;whiteSpace=wrap;connectable=0;overflow=hidden;fillColor=none;top=0;left=0;bottom=0;right=0;" parent="o52KqbpZfKcBIqm1EHPK-8" vertex="1">
          <mxGeometry width="100" height="28" as="geometry">
            <mxRectangle width="100" height="28" as="alternateBounds" />
          </mxGeometry>
        </mxCell>
        <mxCell id="o52KqbpZfKcBIqm1EHPK-10" value="Sacha" style="shape=partialRectangle;html=1;whiteSpace=wrap;connectable=0;overflow=hidden;fillColor=none;top=0;left=0;bottom=0;right=0;" parent="o52KqbpZfKcBIqm1EHPK-8" vertex="1">
          <mxGeometry x="100" width="220" height="28" as="geometry">
            <mxRectangle width="220" height="28" as="alternateBounds" />
          </mxGeometry>
        </mxCell>
        <mxCell id="o52KqbpZfKcBIqm1EHPK-11" value="" style="shape=partialRectangle;html=1;whiteSpace=wrap;collapsible=0;dropTarget=0;pointerEvents=0;fillColor=none;top=0;left=0;bottom=0;right=0;points=[[0,0.5],[1,0.5]];portConstraint=eastwest;" parent="o52KqbpZfKcBIqm1EHPK-1" vertex="1">
          <mxGeometry y="83" width="320" height="27" as="geometry" />
        </mxCell>
        <mxCell id="o52KqbpZfKcBIqm1EHPK-12" value="Version" style="shape=partialRectangle;html=1;whiteSpace=wrap;connectable=0;overflow=hidden;fillColor=none;top=0;left=0;bottom=0;right=0;" parent="o52KqbpZfKcBIqm1EHPK-11" vertex="1">
          <mxGeometry width="100" height="27" as="geometry">
            <mxRectangle width="100" height="27" as="alternateBounds" />
          </mxGeometry>
        </mxCell>
        <mxCell id="o52KqbpZfKcBIqm1EHPK-13" value="1,0" style="shape=partialRectangle;html=1;whiteSpace=wrap;connectable=0;overflow=hidden;fillColor=none;top=0;left=0;bottom=0;right=0;" parent="o52KqbpZfKcBIqm1EHPK-11" vertex="1">
          <mxGeometry x="100" width="220" height="27" as="geometry">
            <mxRectangle width="220" height="27" as="alternateBounds" />
          </mxGeometry>
        </mxCell>
        <mxCell id="o52KqbpZfKcBIqm1EHPK-27" value="&lt;div style=&quot;box-sizing: border-box ; width: 100% ; padding: 2px&quot;&gt;&lt;br&gt;&lt;/div&gt;" style="verticalAlign=top;align=center;overflow=fill;html=1;rounded=0;shadow=0;comic=0;labelBackgroundColor=none;strokeColor=#000000;strokeWidth=1;fillColor=#ffffff;fontFamily=Verdana;fontSize=12;fontColor=#000000;" parent="1" vertex="1">
          <mxGeometry x="189" y="60" width="200" height="100" as="geometry" />
        </mxCell>
        <mxCell id="o52KqbpZfKcBIqm1EHPK-28" value="agents&amp;nbsp;" style="rounded=0;whiteSpace=wrap;html=1;" parent="1" vertex="1">
          <mxGeometry x="189" y="60" width="200" height="20" as="geometry" />
        </mxCell>
        <mxCell id="o52KqbpZfKcBIqm1EHPK-29" value="&lt;u&gt;nom&lt;br&gt;&lt;/u&gt;description&lt;br&gt;compétence&lt;br&gt;histoire&lt;br&gt;citations" style="text;html=1;strokeColor=none;fillColor=none;align=left;verticalAlign=top;whiteSpace=wrap;rounded=0;" parent="1" vertex="1">
          <mxGeometry x="200" y="80" width="90" height="60" as="geometry" />
        </mxCell>
        <mxCell id="o52KqbpZfKcBIqm1EHPK-30" value="&lt;span style=&quot;white-space: pre&quot;&gt; &lt;span style=&quot;white-space: pre&quot;&gt; &lt;/span&gt;&lt;/span&gt;texte&lt;br&gt;&lt;span style=&quot;white-space: pre&quot;&gt; &lt;span style=&quot;white-space: pre;&quot;&gt; &lt;/span&gt;&lt;/span&gt;texte&lt;br&gt;&lt;span style=&quot;white-space: pre&quot;&gt; &lt;span style=&quot;white-space: pre;&quot;&gt; &lt;/span&gt;&lt;/span&gt;texte&amp;nbsp;&lt;span style=&quot;white-space: pre&quot;&gt; &lt;/span&gt;&lt;br&gt;&lt;span style=&quot;white-space: pre&quot;&gt; &lt;/span&gt;&lt;span style=&quot;white-space: pre&quot;&gt; &lt;/span&gt;texte&lt;br&gt;&lt;span style=&quot;white-space: pre;&quot;&gt; &lt;/span&gt;&lt;span style=&quot;white-space: pre;&quot;&gt; &lt;/span&gt;texte&amp;nbsp;" style="text;html=1;strokeColor=none;fillColor=none;align=left;verticalAlign=top;whiteSpace=wrap;rounded=0;" parent="1" vertex="1">
          <mxGeometry x="289" y="80" width="100" height="50" as="geometry" />
        </mxCell>
        <mxCell id="o52KqbpZfKcBIqm1EHPK-31" value="&lt;div style=&quot;box-sizing: border-box ; width: 100% ; padding: 2px&quot;&gt;&lt;br&gt;&lt;/div&gt;" style="verticalAlign=top;align=center;overflow=fill;html=1;rounded=0;shadow=0;comic=0;labelBackgroundColor=none;strokeColor=#000000;strokeWidth=1;fillColor=#ffffff;fontFamily=Verdana;fontSize=12;fontColor=#000000;" parent="1" vertex="1">
          <mxGeometry x="439" y="60" width="200" height="60" as="geometry" />
        </mxCell>
        <mxCell id="o52KqbpZfKcBIqm1EHPK-32" value="cartes" style="rounded=0;whiteSpace=wrap;html=1;" parent="1" vertex="1">
          <mxGeometry x="439" y="60" width="200" height="20" as="geometry" />
        </mxCell>
        <mxCell id="o52KqbpZfKcBIqm1EHPK-33" value="&lt;u&gt;nom&lt;/u&gt;&lt;br&gt;description" style="text;html=1;strokeColor=none;fillColor=none;align=left;verticalAlign=top;whiteSpace=wrap;rounded=0;" parent="1" vertex="1">
          <mxGeometry x="450" y="80" width="90" height="60" as="geometry" />
        </mxCell>
        <mxCell id="o52KqbpZfKcBIqm1EHPK-34" value="&lt;span style=&quot;white-space: pre&quot;&gt; &lt;span style=&quot;white-space: pre&quot;&gt; &lt;/span&gt;&lt;/span&gt;texte&lt;br&gt;&lt;span style=&quot;white-space: pre&quot;&gt; &lt;/span&gt;numérique&lt;br&gt;&lt;span style=&quot;white-space: pre&quot;&gt; &lt;/span&gt;&lt;span style=&quot;white-space: pre&quot;&gt; &lt;/span&gt;&lt;br&gt;&lt;span style=&quot;white-space: pre&quot;&gt; &lt;/span&gt;&lt;span style=&quot;white-space: pre&quot;&gt; &lt;/span&gt;" style="text;html=1;strokeColor=none;fillColor=none;align=left;verticalAlign=top;whiteSpace=wrap;rounded=0;" parent="1" vertex="1">
          <mxGeometry x="539" y="80" width="100" height="50" as="geometry" />
        </mxCell>
        <mxCell id="o52KqbpZfKcBIqm1EHPK-35" value="&lt;div style=&quot;box-sizing: border-box ; width: 100% ; padding: 2px&quot;&gt;&lt;br&gt;&lt;/div&gt;" style="verticalAlign=top;align=center;overflow=fill;html=1;rounded=0;shadow=0;comic=0;labelBackgroundColor=none;strokeColor=#000000;strokeWidth=1;fillColor=#ffffff;fontFamily=Verdana;fontSize=12;fontColor=#000000;" parent="1" vertex="1">
          <mxGeometry x="189" y="180" width="200" height="150" as="geometry" />
        </mxCell>
        <mxCell id="o52KqbpZfKcBIqm1EHPK-36" value="armes" style="rounded=0;whiteSpace=wrap;html=1;" parent="1" vertex="1">
          <mxGeometry x="189" y="180" width="200" height="20" as="geometry" />
        </mxCell>
        <mxCell id="o52KqbpZfKcBIqm1EHPK-37" value="&lt;u&gt;nom&lt;/u&gt;&lt;br&gt;type&lt;br&gt;origine&amp;nbsp;&lt;br&gt;chargeur&lt;br&gt;coût&lt;br&gt;dégât_tête&lt;br style=&quot;border-color: var(--border-color);&quot;&gt;dégât_corps&lt;br style=&quot;border-color: var(--border-color);&quot;&gt;dégât_jambe" style="text;html=1;strokeColor=none;fillColor=none;align=left;verticalAlign=top;whiteSpace=wrap;rounded=0;" parent="1" vertex="1">
          <mxGeometry x="194.5" y="200" width="90" height="60" as="geometry" />
        </mxCell>
        <mxCell id="o52KqbpZfKcBIqm1EHPK-38" value="&lt;span style=&quot;&quot;&gt; &lt;span style=&quot;&quot;&gt; &lt;/span&gt;&lt;/span&gt;texte&lt;br&gt;&lt;span style=&quot;&quot;&gt; &lt;span style=&quot;&quot;&gt; &lt;/span&gt;&lt;/span&gt;texte&lt;br&gt;&lt;span style=&quot;&quot;&gt; &lt;span style=&quot;&quot;&gt; &lt;/span&gt;&lt;/span&gt;texte&lt;br&gt;&lt;span style=&quot;&quot;&gt; &lt;/span&gt;&lt;span style=&quot;&quot;&gt; &lt;/span&gt;texte&lt;br&gt;&lt;span style=&quot;&quot;&gt; &lt;/span&gt;numérique&lt;br&gt; numérique&lt;br style=&quot;border-color: var(--border-color);&quot;&gt;&lt;span style=&quot;border-color: var(--border-color);&quot;&gt; &lt;/span&gt;numérique&amp;nbsp;&lt;br style=&quot;border-color: var(--border-color);&quot;&gt;&lt;span style=&quot;border-color: var(--border-color);&quot;&gt; &lt;/span&gt;numérique&amp;nbsp;" style="text;html=1;strokeColor=none;fillColor=none;align=left;verticalAlign=top;whiteSpace=wrap;rounded=0;" parent="1" vertex="1">
          <mxGeometry x="283.5" y="200" width="100" height="50" as="geometry" />
        </mxCell>
        <mxCell id="o52KqbpZfKcBIqm1EHPK-39" value="&lt;div style=&quot;box-sizing: border-box ; width: 100% ; padding: 2px&quot;&gt;&lt;br&gt;&lt;/div&gt;" style="verticalAlign=top;align=center;overflow=fill;html=1;rounded=0;shadow=0;comic=0;labelBackgroundColor=none;strokeColor=#000000;strokeWidth=1;fillColor=#ffffff;fontFamily=Verdana;fontSize=12;fontColor=#000000;" parent="1" vertex="1">
          <mxGeometry x="439" y="150" width="200" height="70" as="geometry" />
        </mxCell>
        <mxCell id="o52KqbpZfKcBIqm1EHPK-41" value="&lt;u&gt;email&lt;/u&gt;&lt;br&gt;mot de passe" style="text;html=1;strokeColor=none;fillColor=none;align=left;verticalAlign=top;whiteSpace=wrap;rounded=0;" parent="1" vertex="1">
          <mxGeometry x="444.5" y="170" width="90" height="60" as="geometry" />
        </mxCell>
        <mxCell id="o52KqbpZfKcBIqm1EHPK-42" value="&lt;span style=&quot;white-space: pre&quot;&gt; &lt;span style=&quot;white-space: pre&quot;&gt; &lt;/span&gt;&lt;/span&gt;texte&lt;br&gt;&lt;span style=&quot;white-space: pre&quot;&gt; &lt;span style=&quot;white-space: pre;&quot;&gt; &lt;/span&gt;t&lt;/span&gt;exte&lt;br&gt;&lt;span style=&quot;white-space: pre&quot;&gt; &lt;/span&gt;&lt;span style=&quot;white-space: pre&quot;&gt; &lt;/span&gt;&lt;br&gt;&lt;span style=&quot;white-space: pre&quot;&gt; &lt;/span&gt;&lt;span style=&quot;white-space: pre&quot;&gt; &lt;/span&gt;" style="text;html=1;strokeColor=none;fillColor=none;align=left;verticalAlign=top;whiteSpace=wrap;rounded=0;" parent="1" vertex="1">
          <mxGeometry x="533.5" y="170" width="100" height="50" as="geometry" />
        </mxCell>
        <mxCell id="o52KqbpZfKcBIqm1EHPK-40" value="membre" style="rounded=0;whiteSpace=wrap;html=1;" parent="1" vertex="1">
          <mxGeometry x="439" y="150" width="200" height="20" as="geometry" />
        </mxCell>
        <mxCell id="o52KqbpZfKcBIqm1EHPK-43" value="&lt;div style=&quot;box-sizing: border-box ; width: 100% ; padding: 2px&quot;&gt;&lt;br&gt;&lt;/div&gt;" style="verticalAlign=top;align=center;overflow=fill;html=1;rounded=0;shadow=0;comic=0;labelBackgroundColor=none;strokeColor=#000000;strokeWidth=1;fillColor=#ffffff;fontFamily=Verdana;fontSize=12;fontColor=#000000;" parent="1" vertex="1">
          <mxGeometry x="439" y="240" width="200" height="90" as="geometry" />
        </mxCell>
        <mxCell id="o52KqbpZfKcBIqm1EHPK-44" value="dégâts" style="rounded=0;whiteSpace=wrap;html=1;" parent="1" vertex="1">
          <mxGeometry x="439" y="240" width="200" height="20" as="geometry" />
        </mxCell>
        <mxCell id="o52KqbpZfKcBIqm1EHPK-45" value="tête&lt;br&gt;corps&lt;br&gt;jambe" style="text;html=1;strokeColor=none;fillColor=none;align=left;verticalAlign=top;whiteSpace=wrap;rounded=0;" parent="1" vertex="1">
          <mxGeometry x="450" y="260" width="90" height="60" as="geometry" />
        </mxCell>
        <mxCell id="o52KqbpZfKcBIqm1EHPK-46" value="&lt;span style=&quot;white-space: pre&quot;&gt; &lt;/span&gt;numérique&lt;br&gt;&lt;span style=&quot;white-space: pre&quot;&gt; &lt;/span&gt;numérique&amp;nbsp;&lt;br&gt;&lt;span style=&quot;white-space: pre&quot;&gt; &lt;/span&gt;numérique&amp;nbsp;" style="text;html=1;strokeColor=none;fillColor=none;align=left;verticalAlign=top;whiteSpace=wrap;rounded=0;" parent="1" vertex="1">
          <mxGeometry x="539" y="260" width="100" height="50" as="geometry" />
        </mxCell>
      </root>
    </mxGraphModel>
  </diagram>
</mxfile>
